<svg viewBox="1 1 511 511.99998" xmlns="http://www.w3.org/2000/svg"><path d="m512.5 256c0 141.386719-114.617188 256-256 256-141.386719 0-256-114.613281-256-256 0-141.382812 114.613281-256 256-256 141.382812 0 256 114.617188 256 256zm0 0" fill="#fcda42"/><path d="m471.21875 34.136719v361.316406c-6.34375 9.738281-13.324219 19.027344-20.898438 27.792969-46.945312 54.355468-116.359374 88.753906-193.816406 88.753906-77.460937 0-146.871094-34.398438-193.820312-88.753906-7.574219-8.765625-14.554688-18.054688-20.898438-27.792969v-361.316406c0-18.851563 15.289063-34.136719 34.136719-34.136719h361.160156c18.847657 0 34.136719 15.285156 34.136719 34.136719zm0 0" fill="#ededed"/><path d="m450.320312 34.136719v389.109375c-6.542968 7.574218-13.519531 14.765625-20.898437 21.523437-45.558594 41.753907-106.253906 67.230469-172.917969 67.230469-18.453125 0-36.457031-1.953125-53.804687-5.675781-7.449219-1.578125-14.761719-3.5-21.953125-5.726563-36.570313-11.304687-69.628906-30.59375-97.164063-55.828125-7.375-6.757812-14.355469-13.949219-20.898437-21.523437v-389.109375c0-7.304688 5.9375-13.238281 13.238281-13.238281h361.160156c7.304688 0 13.238281 5.933593 13.238281 13.238281zm0 0" fill="#fff"/><path d="m450.320312 34.136719v55.851562h-387.636718v-55.851562c0-7.304688 5.9375-13.238281 13.238281-13.238281h361.160156c7.304688 0 13.238281 5.933593 13.238281 13.238281zm0 0" fill="#583377"/><g fill="#fff"><path d="m116.484375 55.441406c0 10.003906-8.109375 18.113282-18.109375 18.113282-10.003906 0-18.113281-8.109376-18.113281-18.113282 0-10 8.109375-18.109375 18.113281-18.109375 10 0 18.109375 8.109375 18.109375 18.109375zm0 0"/><path d="m162.613281 55.441406c0 10.003906-8.109375 18.113282-18.113281 18.113282-10 0-18.109375-8.109376-18.109375-18.113282 0-10 8.109375-18.109375 18.109375-18.109375 10.003906 0 18.113281 8.109375 18.113281 18.109375zm0 0"/><path d="m208.738281 55.441406c0 10.003906-8.109375 18.113282-18.109375 18.113282-10.003906 0-18.113281-8.109376-18.113281-18.113282 0-10 8.109375-18.109375 18.113281-18.109375 10 0 18.109375 8.109375 18.109375 18.109375zm0 0"/></g><path d="m406.21875 264.34375c0 82.6875-67.03125 149.71875-149.71875 149.71875s-149.71875-67.03125-149.71875-149.71875 67.03125-149.71875 149.71875-149.71875 149.71875 67.03125 149.71875 149.71875zm0 0" fill="#ededed"/><path d="m207.121094 270.347656c0 13.789063-11.179688 24.972656-24.972656 24.972656-13.789063 0-24.96875-11.183593-24.96875-24.972656 0-13.792968 11.179687-24.972656 24.96875-24.972656 13.792968 0 24.972656 11.179688 24.972656 24.972656zm0 0" fill="#e0a792"/><path d="m355.394531 270.347656c0 13.789063-11.179687 24.972656-24.972656 24.972656-13.789063 0-24.972656-11.183593-24.972656-24.972656 0-13.792968 11.183593-24.972656 24.972656-24.972656 13.792969 0 24.972656 11.179688 24.972656 24.972656zm0 0" fill="#e0a792"/><path d="m256.496094 360.90625c-41.0625 0-74.347656-33.285156-74.347656-74.34375v-95.433594h148.691406v95.433594c0 41.058594-33.285156 74.34375-74.34375 74.34375zm0 0" fill="#f9d8c7"/><path d="m267.132812 360.148438c-3.476562.5-7.019531.757812-10.632812.757812-41.0625 0-74.347656-33.28125-74.347656-74.34375v-95.433594h21.269531v95.433594c0 37.449219 27.691406 68.425781 63.710937 73.585938zm0 0" fill="#e0a792"/><path d="m197.855469 207.261719-23.007813 11.582031v52.691406c12.707032 0 23.007813-10.300781 23.007813-23.007812zm0 0" fill="#442463"/><path d="m315.132812 166.726562h23.011719v104.808594c-12.707031 0-23.011719-10.300781-23.011719-23.007812zm0 0" fill="#583377"/><path d="m304.320312 218.84375h-129.472656c0-41.109375 33.324219-74.433594 74.429688-74.433594h129.476562c0 41.105469-33.324218 74.433594-74.433594 74.433594zm0 0" fill="#583377"/><path d="m284.1875 144.410156h-34.910156c-41.105469 0-74.429688 33.324219-74.429688 74.433594h34.90625c0-41.109375 33.324219-74.433594 74.433594-74.433594zm0 0" fill="#442463"/><path d="m238.390625 262.851562c0-7.675781-6.21875-13.898437-13.894531-13.898437-7.675782 0-13.898438 6.222656-13.898438 13.898437" fill="#384361"/><path d="m302.089844 262.851562c0-7.675781-6.222656-13.898437-13.898438-13.898437-7.675781 0-13.898437 6.222656-13.898437 13.898437" fill="#384361"/><path d="m268.289062 276.019531h-23.589843c-4.039063 0-7.3125 3.273438-7.3125 7.3125 0 4.039063 3.273437 7.3125 7.3125 7.3125h23.589843c4.039063 0 7.316407-3.273437 7.316407-7.3125 0-4.039062-3.277344-7.3125-7.316407-7.3125zm0 0" fill="#e0a792"/><path d="m221.75 298.367188c0 19.1875 15.558594 34.742187 34.746094 34.742187s34.742187-15.554687 34.742187-34.742187" fill="#fff"/><path d="m151.621094 438.699219h209.761718v15.113281h-209.761718zm0 0" fill="#384361"/><path d="m151.621094 467.128906h209.761718v15.117188h-209.761718zm0 0" fill="#384361"/></svg>